<?xml version="1.0" encoding="utf-8"?>
<!-- Generator: Adobe Illustrator 13.0.0, SVG Export Plug-In . SVG Version: 6.00 Build 14948)  -->
<!DOCTYPE svg PUBLIC "-//W3C//DTD SVG 1.1//EN" "http://www.w3.org/Graphics/SVG/1.1/DTD/svg11.dtd">
<svg version="1.1" id="Layer_1" xmlns="http://www.w3.org/2000/svg" xmlns:xlink="http://www.w3.org/1999/xlink" x="0px" y="0px"
	 width="800px" height="300px" viewBox="0 0 1920 250" style="enable-background:new 0 0 1920 250;" xml:space="preserve">
<style type="text/css">
<![CDATA[
	.st0{fill:#FFFFFF;}
	.st1{fill:none;}
]]>
</style>
<ellipse class="st0" cx="690.355" cy="279.085" rx="293.235" ry="149.992"/>
<ellipse class="st0" cx="1210.829" cy="201.09" rx="290.235" ry="149.992"/>
<path class="st0" d="M1912.747,265.809c-57.815-47.629-124.127-88.679-198.17-100.045c-74.037-11.361-153.738,10.243-197.691,70.902
	c-43.243-43.605-99.756,16.618-157.386,37.834c-112.376-91.146-273.835-193.286-417.907-179.908
	c-144.08,13.375-281.312,69.623-374.981,179.908c-62.347-14.084-136.734-30.923-199.669-19.773
	c-51.084,9.062-93.72,33.885-144.09,37.898h1845.219C2017.24,270.26,1968.156,260.738,1912.747,265.809z"/>
<rect x="559.5" y="-25.5" class="st1" width="800" height="300"/>
</svg>
